Coordinates
version=1
nRows=8
nColumns=63
inDegrees=yes

Units are S.I. units (second, meters, Newtons, ...)
If the header above contains a line with 'inDegrees', this indicates whether rotational values are in degrees (yes) or radians (no).

endheader
time	pelvis_tilt	pelvis_list	pelvis_rotation	pelvis_tx	pelvis_ty	pelvis_tz	hip_flexion_r	hip_adduction_r	hip_rotation_r	knee_angle_r	knee_angle_r_beta	ankle_angle_r	subtalar_angle_r	mtp_angle_r	hip_flexion_l	hip_adduction_l	hip_rotation_l	knee_angle_l	knee_angle_l_beta	ankle_angle_l	subtalar_angle_l	mtp_angle_l	L5_S1_Flex_Ext	L5_S1_Lat_Bending	L5_S1_axial_rotation	L4_L5_Flex_Ext	L4_L5_Lat_Bending	L4_L5_axial_rotation	L3_L4_Flex_Ext	L3_L4_Lat_Bending	L3_L4_axial_rotation	L2_L3_Flex_Ext	L2_L3_Lat_Bending	L2_L3_axial_rotation	L1_L2_Flex_Ext	L1_L2_Lat_Bending	L1_L2_axial_rotation	L1_T12_Flex_Ext	L1_T12_Lat_Bending	L1_T12_axial_rotation	Abs_r3	Abs_r2	Abs_r1	Abs_t1	Abs_t2	neck_flexion	neck_bending	neck_rotation	arm_flex_r	arm_add_r	arm_rot_r	elbow_flex_r	pro_sup_r	wrist_flex_r	wrist_dev_r	arm_flex_l	arm_add_l	arm_rot_l	elbow_flex_l	pro_sup_l	wrist_flex_l	wrist_dev_l
0.000000	3.064407	-5.591682	88.568046	0.204949	0.965279	0.593422	1.219222	-1.614444	-4.289408	4.865443	0.084918	23.801118	17.210350	0.000000	2.119046	0.495632	-4.561445	5.723321	0.099891	22.346649	5.377598	0.000000	-0.046294	-0.070201	-1.280048	-0.085973	-0.093367	-1.360051	-0.076057	-0.170686	-1.360051	-0.052910	-0.170686	-1.120042	-0.042989	-0.143153	-1.040039	-0.026452	-0.108741	-0.960036	-0.330674	-0.794123	-7.119242	0.000000	0.000000	15.975069	3.513264	12.766299	17.911433	-9.306285	55.910625	38.043137	69.462986	-9.799264	-4.183276	2.507872	-8.755732	37.643925	35.481963	70.924373	1.402655	20.987318
0.019608	3.925256	-5.395100	89.314401	0.203922	0.966502	0.591512	0.951469	-0.773923	-4.952346	5.087078	0.088786	23.905732	17.053268	0.000000	1.834321	-0.340339	-3.616960	5.683719	0.099200	22.545999	4.992780	0.000000	-0.038253	0.035870	-1.282062	-0.071039	0.047707	-1.362191	-0.062845	0.087213	-1.362191	-0.043719	0.087213	-1.121804	-0.035521	0.073145	-1.041676	-0.021858	0.055562	-0.961547	-0.273235	0.405764	-7.130446	0.000000	0.000000	15.374190	3.059681	12.112645	17.018516	-9.945869	56.363527	40.608265	69.470203	-8.168773	-3.445845	4.338794	-8.445952	43.634389	35.768755	63.674508	1.048353	12.807133
0.039216	4.654076	-5.250801	89.912822	0.203059	0.967491	0.590270	0.795498	-0.064328	-5.460551	5.292658	0.092374	24.019436	16.931225	0.000000	1.642311	-1.036807	-2.636755	5.642915	0.098487	22.692919	4.333680	0.000000	-0.031384	0.127125	-1.279024	-0.058283	0.169077	-1.358962	-0.051560	0.309093	-1.358962	-0.035868	0.309093	-1.119146	-0.029143	0.259234	-1.039207	-0.017933	0.196917	-0.959268	-0.224171	1.438068	-7.113545	0.000000	0.000000	14.860147	2.652275	11.625159	16.379289	-10.434318	57.085430	42.725657	69.817201	-6.568628	-2.820786	5.950832	-8.191865	48.603775	36.292232	58.657338	0.714786	6.545137
0.058824	5.260630	-5.153385	90.376015	0.202349	0.968267	0.589620	0.737978	0.524119	-5.828726	5.482041	0.095680	24.139711	16.840962	0.000000	1.532136	-1.604684	-1.632371	5.600463	0.097747	22.792068	3.437996	0.000000	-0.025645	0.204565	-1.271477	-0.047626	0.272071	-1.350945	-0.042133	0.497379	-1.350945	-0.029310	0.497379	-1.112543	-0.023814	0.417149	-1.033075	-0.014654	0.316871	-0.953608	-0.183182	2.314078	-7.071576	0.000000	0.000000	14.428916	2.289043	11.285605	15.966918	-10.785948	58.036229	44.431377	70.460292	-5.013088	-2.297054	7.356431	-7.986892	52.635069	37.014633	55.610108	0.401427	2.014013
0.078431	5.754681	-5.097453	90.716684	0.201779	0.968847	0.589483	0.765582	1.001198	-6.071573	5.655087	0.098700	24.264037	16.779219	0.000000	1.492921	-2.054884	-0.615347	5.555919	0.096969	22.848103	2.343425	0.000000	-0.020995	0.269186	-1.259970	-0.038990	0.358017	-1.338718	-0.034493	0.654498	-1.338718	-0.023996	0.654498	-1.102473	-0.019496	0.548924	-1.023725	-0.011997	0.416969	-0.944977	-0.149968	3.045083	-7.007573	0.000000	0.000000	14.076474	1.967982	11.075748	15.754571	-11.015074	59.175817	45.761485	71.355788	-3.516412	-1.863603	8.568032	-7.824456	55.811256	37.898201	54.270066	0.107744	-0.973561
0.098039	6.145992	-5.077604	90.947533	0.201337	0.969249	0.589781	0.864979	1.376689	-6.203794	5.811654	0.101433	24.389893	16.742738	0.000000	1.513787	-2.398318	0.402777	5.508836	0.096147	22.865683	1.087665	0.000000	-0.017392	0.321986	-1.245046	-0.032298	0.428241	-1.322862	-0.028573	0.782877	-1.322862	-0.019877	0.782877	-1.089415	-0.016150	0.656594	-1.011600	-0.009938	0.498756	-0.933785	-0.124228	3.642370	-6.924573	0.000000	0.000000	13.798798	1.687092	10.977350	15.715414	-11.136012	60.464090	46.752044	72.460002	-2.092858	-1.509387	9.598079	-7.697982	58.215324	38.905175	54.374460	-0.166792	-2.604905
0.117647	6.444327	-5.088439	91.081269	0.201010	0.969492	0.590437	1.022842	1.660371	-6.240091	5.951602	0.103875	24.514761	16.728260	0.000000	1.583856	-2.645900	1.410462	5.458771	0.095274	22.849467	-0.291588	0.000000	-0.014793	0.363964	-1.227253	-0.027472	0.484072	-1.303956	-0.024303	0.884941	-1.303956	-0.016907	0.884941	-1.073846	-0.013737	0.742195	-0.997143	-0.008453	0.563780	-0.920440	-0.105663	4.117229	-6.825612	0.000000	0.000000	13.591866	1.444369	10.972176	15.822614	-11.163078	61.860940	47.439115	73.729246	-0.756683	-1.223360	10.459016	-7.600891	59.930258	39.997797	55.660535	-0.422711	-3.067339
0.137255	6.659450	-5.124558	91.130595	0.200787	0.969595	0.591372	1.225841	1.862024	-6.195167	6.074788	0.106025	24.636120	16.732526	0.000000	1.692252	-2.808542	2.396168	5.405278	0.094340	22.804113	-1.756636	0.000000	-0.013156	0.396116	-1.207135	-0.024432	0.526835	-1.282581	-0.021614	0.963117	-1.282581	-0.015036	0.963117	-1.056244	-0.012217	0.807761	-0.980798	-0.007517	0.613584	-0.905352	-0.093973	4.480948	-6.713725	0.000000	0.000000	13.451653	1.237812	11.041989	16.049337	-11.110589	63.326262	47.858760	75.119831	0.477854	-0.994477	11.163284	-7.526608	61.039046	41.138306	57.865541	-0.660543	-2.548183
